<svg id="Layer_1" data-name="Layer 1" xmlns="http://www.w3.org/2000/svg" viewBox="0 0 133.81 133.81"><defs><style>.cls-1{fill:none;}</style></defs><path class="cls-1" d="M75.15,52.67a5.35,5.35,0,0,0,5.36,5.45h0a5.41,5.41,0,0,0,0-10.81h0a5.38,5.38,0,0,0-5.45,5.36Zm4.41-1a1.39,1.39,0,0,1,1-.4h0a1.42,1.42,0,0,1,0,2.83h0a1.38,1.38,0,0,1-1.39-1.43A1.34,1.34,0,0,1,79.56,51.7Z"/><path class="cls-1" d="M55.52,36.48h0a5.41,5.41,0,0,0,0-10.81h0a5.41,5.41,0,1,0,0,10.81Zm-1-6.41a1.38,1.38,0,0,1,1-.41h0a1.42,1.42,0,0,1,0,2.83h0a1.45,1.45,0,0,1-1-.4,1.46,1.46,0,0,1,0-2Z"/><path class="cls-1" d="M66.9,2.37A64.53,64.53,0,1,0,131.43,66.9,64.61,64.61,0,0,0,66.9,2.37Zm21.9,50.4A8.35,8.35,0,0,1,80.59,61h-.08a8.38,8.38,0,0,1-8.2-8.3,8.37,8.37,0,0,1,8.19-8.21h.09A8.32,8.32,0,0,1,88.8,52.77ZM75.25,33.29l4-4c.23-.23.46-.47.7-.7.69-.71,1.35-1.38,2-2a1.09,1.09,0,0,1,.75-.34,1.5,1.5,0,0,1,.65.17c.27.13.63.3.8,1.33v0a4.06,4.06,0,0,1-.58,1C74.4,38.07,64.38,48.11,52.08,60.37a1.66,1.66,0,0,1-1.14.57h0a1.4,1.4,0,0,1-.93-.45c-.26-.27-.94-1,.32-2.24Q62.77,45.76,75.25,33.29ZM55.54,22.82h.06a8.33,8.33,0,0,1,8.16,8.32,8.39,8.39,0,0,1-8.25,8.19h-.06a8.17,8.17,0,0,1-5.8-2.52A8.09,8.09,0,0,1,47.28,31,8.39,8.39,0,0,1,55.54,22.82Zm19,87.14c-2.49.51-5.05.69-7.58,1A37.94,37.94,0,0,1,29.87,79.06c-.29-2-.39-4-.5-5.94,0-.41.13-1.08.41-1.23A36.66,36.66,0,0,1,36.16,69a10.29,10.29,0,0,1,8.66,1.66,13.28,13.28,0,0,0,7.8,2.62,12,12,0,0,0,6.78-2.17,11.9,11.9,0,0,1,10.92-1.81,19.18,19.18,0,0,1,3.89,2C78.65,74,83.1,74,87.45,71.21c3.08-2,6.34-3.26,9.92-2.22a38.77,38.77,0,0,1,6.73,3.22c.25.13.35.74.34,1.12A37.55,37.55,0,0,1,74.54,110Z"/><path d="M66.9,0a66.91,66.91,0,1,0,66.91,66.9A67,67,0,0,0,66.9,0Zm0,131.43A64.53,64.53,0,1,1,131.43,66.9,64.61,64.61,0,0,1,66.9,131.43Z"/><path d="M97.37,69c-3.58-1-6.84.22-9.92,2.22C83.1,74,78.65,74,74.21,71.28a19.18,19.18,0,0,0-3.89-2A11.9,11.9,0,0,0,59.4,71.07a12,12,0,0,1-6.78,2.17,13.28,13.28,0,0,1-7.8-2.62A10.29,10.29,0,0,0,36.16,69a36.66,36.66,0,0,0-6.38,2.93c-.28.15-.44.82-.41,1.23.11,2,.21,4,.5,5.94A37.94,37.94,0,0,0,67,111c2.53-.34,5.09-.52,7.58-1a37.55,37.55,0,0,0,29.9-36.63c0-.38-.09-1-.34-1.12A38.77,38.77,0,0,0,97.37,69Z"/><path d="M80.54,54.13h0a1.42,1.42,0,0,0,0-2.83h0a1.39,1.39,0,0,0-1,.4,1.34,1.34,0,0,0-.41,1A1.38,1.38,0,0,0,80.54,54.13Z"/><path d="M55.52,32.49h0a1.42,1.42,0,0,0,0-2.83h0a1.38,1.38,0,0,0-1,.41,1.46,1.46,0,0,0,0,2A1.45,1.45,0,0,0,55.52,32.49Z"/><path d="M50,60.49a1.4,1.4,0,0,0,.93.45h0a1.66,1.66,0,0,0,1.14-.57c12.3-12.26,22.32-22.3,31.53-31.58a4.06,4.06,0,0,0,.58-1v0c-.17-1-.53-1.2-.8-1.33a1.5,1.5,0,0,0-.65-.17,1.09,1.09,0,0,0-.75.34c-.7.6-1.36,1.27-2,2-.24.23-.47.47-.7.7l-4,4q-12.48,12.48-24.93,25C49.06,59.51,49.74,60.22,50,60.49Z"/><path d="M55.45,39.33h.06a8.39,8.39,0,0,0,8.25-8.19,8.33,8.33,0,0,0-8.16-8.32h-.06A8.39,8.39,0,0,0,47.28,31a8.09,8.09,0,0,0,2.37,5.8A8.17,8.17,0,0,0,55.45,39.33ZM51.66,27.26a5.35,5.35,0,0,1,3.83-1.59h0a5.41,5.41,0,0,1,0,10.81h0a5.43,5.43,0,0,1-3.86-9.22Z"/><path d="M80.5,44.46a8.37,8.37,0,0,0-8.19,8.21,8.38,8.38,0,0,0,8.2,8.3h.08a8.35,8.35,0,0,0,8.21-8.2,8.32,8.32,0,0,0-8.21-8.31Zm.1,2.85a5.41,5.41,0,0,1,0,10.81h0a5.41,5.41,0,1,1,.09-10.81Z"/></svg>