<svg id="Layer_1" data-name="Layer 1" xmlns="http://www.w3.org/2000/svg" viewBox="0 0 133.81 133.81"><defs><style>.cls-1{fill:#9a3c44;}.cls-2{fill:#e1dcd9;}.cls-3{fill:#8e7075;}.cls-4{fill:#f9f9fa;}.cls-5{fill:#fff;}</style></defs><path class="cls-1" d="M12.85,118.24V19.56c1-3.16,2.12-4,5.53-4s3.18.29,3.19-3.25a25.47,25.47,0,0,1,.06-2.9c.07-.54.12-1.24,1-.88.64,1.16.33,2.42.35,3.64.05,3.37,0,3.37,3.34,3.37H75.65c.94,0,1.87,0,2.79.08,1.46-.1,2.93,0,4.38-.08a5.54,5.54,0,0,1,5.68,5.64c-.15,5.39-.17,10.8,0,16.19-.1,3.13-.15,6.25,0,9.38,0,.79,0,1.59,0,2.38,0,1.07.52,1.53,1.55,1.51.49,0,1,0,1.46,0,6.93,0,13.86,0,20.79,0,.76,0,1.61-.21,2.22.54,0,.74-.57.8-1.1.86s-1.24,0-1.86,0H91.08c-2.56,0-2.63.07-2.63,2.57q0,4.71,0,9.42a12.3,12.3,0,0,1-.21,2.5c-.06.75.51,54.8-.36,55.51-.5.24-14.11.2-14.63.2-3.85,0-7.69,0-11.53,0a3,3,0,0,1-1.8-.31c-.69-.56-.57-1.36-.57-2.09,0-3.9,0-7.81,0-11.71a19.25,19.25,0,0,0-.27-3.3,3.91,3.91,0,0,0-3.87-3.54c-3.23-.13-6.47-.14-9.7,0a4.1,4.1,0,0,0-3.85,4.3c-.06,4.7,0,9.4,0,14.1a2.85,2.85,0,0,1-.46,2.15,3.05,3.05,0,0,1-2.16.4q-10.55,0-21.08,0C14.82,122.27,13.56,121.25,12.85,118.24Z"/><path class="cls-2" d="M75.08,4.4c2.71,1.17,3.74,3.23,3.52,6.13-.14,1.84,0,3.71,0,5.56q-27.34,0-54.7,0c-1.21,0-1.51-.43-1.47-1.55.05-2.07,0-4.15,0-6.23a2.84,2.84,0,0,1,1.86-3.56,5.89,5.89,0,0,0,1.38-.39Z"/><path class="cls-3" d="M88.44,121.89c-.19.11-.38.09-.57.19,0-4.55,0-64.37,0-68.92,0-1.39.44-1.7,1.74-1.69,7.74.06,15.47,0,23.21,0a2.78,2.78,0,0,0,1.68-.22c0-.54.42-.86.65-1.28a1.7,1.7,0,0,0-1.33-2.65,12.67,12.67,0,0,0-1.85-.06c-7.21,0-14.42,0-21.63,0-.76,0-1.64.25-2.17-.61a5.79,5.79,0,0,1-.25-2.86,32.34,32.34,0,0,1,.24-6.45l20.6-.05c4,0,7.89,0,11.83,0a4.67,4.67,0,0,1,5,5c0,7.31,0,72.29,0,79.6"/><path class="cls-4" d="M59.82,121.74a13.37,13.37,0,0,1-3.16.11c-4.72,0-9.45,0-14.18,0-.47,0-.95-.06-1.43-.1,0-5.4,0-10.8,0-16.2a4.65,4.65,0,0,1,4.84-4.86q4.53,0,9,0c2.76,0,4.71,1.66,4.79,4.45C59.87,110.67,59.8,116.2,59.82,121.74Z"/><path class="cls-5" d="M50.35,32.59H27.48c-2.2,0-3.44-1.57-2.66-3.3a2.45,2.45,0,0,1,2.36-1.43c1.11,0,2.22,0,3.33,0h42a8.77,8.77,0,0,1,1.85.13,2.19,2.19,0,0,1,1.79,2.43,2.22,2.22,0,0,1-2,2.13,6.53,6.53,0,0,1-1.33.05Z"/><path class="cls-5" d="M50.48,44.3q-11.23,0-22.47,0a8.44,8.44,0,0,1-1.33,0,2.22,2.22,0,0,1-2.06-2.09,2.15,2.15,0,0,1,1.66-2.41,6.56,6.56,0,0,1,1.71-.2H72.8a7,7,0,0,1,1.45.13,2.31,2.31,0,0,1-.36,4.59c-1.91,0-3.82,0-5.72,0C62.27,44.31,56.38,44.3,50.48,44.3Z"/><path class="cls-5" d="M50.49,51.42q11.43,0,22.86,0c1.91,0,2.87.83,2.82,2.38A2.17,2.17,0,0,1,74.25,56a9.46,9.46,0,0,1-1.19,0h-46a2.44,2.44,0,0,1-2.48-2.26,2.3,2.3,0,0,1,2.51-2.33c7.8,0,15.6,0,23.4,0Z"/><path class="cls-5" d="M50.27,67.74H28a10.1,10.1,0,0,1-1.46,0,2.29,2.29,0,0,1,0-4.51,7.52,7.52,0,0,1,1.06,0H73.27c1.24,0,2.33.2,2.79,1.52a2.26,2.26,0,0,1-2.26,3.07c-3,0-5.94,0-8.91,0Z"/><path class="cls-5" d="M46.42,74.87h19a2.47,2.47,0,0,1,2.36,1.2,2.17,2.17,0,0,1-.06,2.38,2.25,2.25,0,0,1-2.16,1H28.08c-.44,0-.89,0-1.33,0a2.31,2.31,0,0,1-2.17-2.27,2.39,2.39,0,0,1,2-2.27,10.14,10.14,0,0,1,1.46,0Z"/><path class="cls-5" d="M44.07,86.58c5.59,0,11.17,0,16.76,0a2.51,2.51,0,0,1,2.45,1.26,2.19,2.19,0,0,1-.12,2.39,2.73,2.73,0,0,1-2.44,1.09c-1.33,0-2.66,0-4,0H28.28a8.17,8.17,0,0,1-1.85-.16,2.29,2.29,0,0,1,.36-4.54c1.42-.08,2.84,0,4.25,0Z"/><path class="cls-4" d="M88.13,46.66q12.51,0,25,0a2.63,2.63,0,0,1,2.63,1.15c.75,1.31.25,2.6-1.34,3.45-8.31,0-16.61,0-24.91,0-1.26,0-1.81-.32-1.64-1.62C88.05,48.68,87.71,47.64,88.13,46.66Z"/></svg>