<svg id="Layer_1" data-name="Layer 1" xmlns="http://www.w3.org/2000/svg" viewBox="0 0 133.81 133.81"><defs><style>.cls-1{fill:none;}</style></defs><path class="cls-1" d="M62.65,38.24a22,22,0,0,0-16,29.54,29.86,29.86,0,0,0,4.13,6.7c.3.39.59.79.88,1.18a39.19,39.19,0,0,1,7.32,17.91c.17,1.2.29,2.39.41,3.64.06.58.11,1.15.17,1.73l.09.82H74.26l.11-1.14c0-.24,0-.45.06-.66a39.26,39.26,0,0,1,3-13.63,55.06,55.06,0,0,1,7.15-11.9,20.82,20.82,0,0,0,3.74-17A21.66,21.66,0,0,0,62.65,38.24Z"/><path class="cls-1" d="M66.9,2.37A64.53,64.53,0,1,0,131.43,66.9,64.61,64.61,0,0,0,66.9,2.37ZM65.74,16.55a3.37,3.37,0,0,1,.6-.67l.32-.31h.64a2.11,2.11,0,0,1,.93,2.13c0,1.09,0,2.17,0,3.26s0,2.15,0,3.23a1.78,1.78,0,0,1-.61,1.43,1.2,1.2,0,0,1-1.09.11c-.79-.26-.8-.66-.8-.8v-.1C65.65,22.1,65.59,19.27,65.74,16.55ZM36,57.16a.61.61,0,0,1-.25.09H34.35c-2.25,0-4.57,0-6.85,0a1.51,1.51,0,0,1-.78-.53,1.09,1.09,0,0,1-.18-1.09,1.26,1.26,0,0,1,1-.81l.14,0,.21,0h2.78l0,.08h2.2c1,0,1.94,0,2.89,0,.19,0,.78.05.92,1.05A1.15,1.15,0,0,1,36,57.16Zm2.25-28a1.7,1.7,0,0,1-.26-.56l0-.08c.06-.94.44-1.19.8-1.34a1.18,1.18,0,0,1,1.38.28c.83.8,1.65,1.63,2.47,2.45l1.31,1.3c.56.55,1.09,1.07,1.59,1.63a1.24,1.24,0,0,1,0,1.83,1.2,1.2,0,0,1-1.78,0C41.76,32.79,39.84,30.82,38.24,29.15Zm35.15,88.63a2,2,0,0,1-1.42.45H61.78c-.62,0-1.66-.18-1.65-1.31s.91-1.3,1.66-1.31H72c.76,0,1.67.23,1.69,1.29A1.19,1.19,0,0,1,73.39,117.78Zm3.33-8.35a1.91,1.91,0,0,1-1.33.46c-6,0-11.56,0-17,0a1.82,1.82,0,0,1-1.31-.45,1.23,1.23,0,0,1-.33-.88c0-1.1,1.08-1.27,1.71-1.28H75.36c.5,0,1.68.14,1.69,1.29A1.21,1.21,0,0,1,76.72,109.43ZM91.3,61.71a24.17,24.17,0,0,1-4.46,12.18l-.58.84A85,85,0,0,0,81,83a34,34,0,0,0-4,16.63v.11a8.61,8.61,0,0,1,0,.88c-.09,1.39-.49,1.78-1.87,1.79H59.07c-1.89,0-2.24-.36-2.33-2.42l0-.76a50.5,50.5,0,0,0-.56-6.56,38,38,0,0,0-8.21-17.58,24.28,24.28,0,0,1,1.79-32.76,24.35,24.35,0,0,1,36,1.69A23.91,23.91,0,0,1,91.3,61.71Zm4.51-33.12a2.6,2.6,0,0,1-.4.71c-1.68,1.76-3.43,3.53-5.22,5.25a1.3,1.3,0,1,1-1.81-1.85c1.36-1.4,2.77-2.79,4.13-4.15l1-1a1.41,1.41,0,0,1,1-.49,1.38,1.38,0,0,1,.53.12c.37.16.73.4.77,1.34Zm11.53,27.85a2.11,2.11,0,0,1-2.13.93c-.63,0-1.25,0-1.87,0H102c-1.07,0-2.15,0-3.23,0a1.78,1.78,0,0,1-1.44-.62,1.21,1.21,0,0,1-.11-1.08c.27-.82.73-.82.91-.83h.72c2.46,0,5-.08,7.46.06a3.18,3.18,0,0,1,.74.63l.33.31Z"/><path d="M65.7,24.93c0,.14,0,.54.8.8a1.2,1.2,0,0,0,1.09-.11,1.78,1.78,0,0,0,.61-1.43c0-1.08,0-2.15,0-3.23s0-2.17,0-3.26a2.11,2.11,0,0,0-.93-2.13h-.64l-.32.31a3.37,3.37,0,0,0-.6.67c-.15,2.72-.09,5.55,0,8.28Z"/><path d="M106.27,54.86c-2.46-.14-5-.1-7.46-.06h-.72c-.18,0-.64,0-.91.83a1.21,1.21,0,0,0,.11,1.08,1.78,1.78,0,0,0,1.44.62c1.08,0,2.16,0,3.23,0h1.38c.62,0,1.24,0,1.87,0a2.11,2.11,0,0,0,2.13-.93V55.8l-.33-.31A3.18,3.18,0,0,0,106.27,54.86Z"/><path d="M68.41,35.23a23.65,23.65,0,0,0-18.69,7.12,24.28,24.28,0,0,0-1.79,32.76,38,38,0,0,1,8.21,17.58,50.5,50.5,0,0,1,.56,6.56l0,.76c.09,2.06.44,2.42,2.33,2.42H75.15c1.38,0,1.78-.4,1.87-1.79a8.61,8.61,0,0,0,0-.88v-.11A34,34,0,0,1,81,83a85,85,0,0,1,5.27-8.29l.58-.84A24.17,24.17,0,0,0,91.3,61.71,24.48,24.48,0,0,0,68.41,35.23ZM84.6,72.43a55.06,55.06,0,0,0-7.15,11.9,39.26,39.26,0,0,0-3,13.63c0,.21,0,.42-.06.66l-.11,1.14H59.61l-.09-.82c-.06-.58-.11-1.15-.17-1.73-.12-1.25-.24-2.44-.41-3.64a39.19,39.19,0,0,0-7.32-17.91c-.29-.39-.58-.79-.88-1.18a29.86,29.86,0,0,1-4.13-6.7A21.85,21.85,0,1,1,88.34,55.46,20.82,20.82,0,0,1,84.6,72.43Z"/><path d="M75.36,107.27H58.45c-.63,0-1.69.18-1.71,1.28a1.23,1.23,0,0,0,.33.88,1.82,1.82,0,0,0,1.31.45c5.45,0,11,0,17,0a1.91,1.91,0,0,0,1.33-.46,1.21,1.21,0,0,0,.33-.87C77,107.41,75.86,107.28,75.36,107.27Z"/><path d="M72,115.61H61.79c-.75,0-1.66.24-1.66,1.31s1,1.3,1.65,1.31H72a2,2,0,0,0,1.42-.45,1.19,1.19,0,0,0,.29-.88C73.66,115.84,72.75,115.62,72,115.61Z"/><path d="M45.55,34.66a1.24,1.24,0,0,0,0-1.83c-.5-.56-1-1.08-1.59-1.63L42.6,29.9c-.82-.82-1.64-1.65-2.47-2.45a1.18,1.18,0,0,0-1.38-.28c-.36.15-.74.4-.8,1.34l0,.08a1.7,1.7,0,0,0,.26.56c1.6,1.67,3.52,3.64,5.53,5.55A1.2,1.2,0,0,0,45.55,34.66Z"/><path d="M95.07,27.16a1.38,1.38,0,0,0-.53-.12,1.41,1.41,0,0,0-1,.49l-1,1c-1.36,1.36-2.77,2.75-4.13,4.15a1.3,1.3,0,1,0,1.81,1.85c1.79-1.72,3.54-3.49,5.22-5.25a2.6,2.6,0,0,0,.4-.71l0-.09C95.8,27.56,95.44,27.32,95.07,27.16Z"/><path d="M35.75,54.83c-1-.06-1.89,0-2.89,0h-2.2l0-.08H27.86l-.21,0-.14,0a1.26,1.26,0,0,0-1,.81,1.09,1.09,0,0,0,.18,1.09,1.51,1.51,0,0,0,.78.53c2.28.07,4.6.05,6.85,0h1.39a.61.61,0,0,0,.25-.09,1.15,1.15,0,0,0,.68-1.28C36.53,54.88,35.94,54.85,35.75,54.83Z"/><path d="M66.9,0a66.91,66.91,0,1,0,66.91,66.9A67,67,0,0,0,66.9,0Zm0,131.43A64.53,64.53,0,1,1,131.43,66.9,64.61,64.61,0,0,1,66.9,131.43Z"/></svg>