<svg id="Layer_1" data-name="Layer 1" xmlns="http://www.w3.org/2000/svg" viewBox="0 0 133.81 133.81"><defs><style>.cls-1{fill:none;}.cls-2{fill:#fff;}</style></defs><path class="cls-1" d="M75.41,66.79l-.59,0q-12.51,0-25,0a1.86,1.86,0,0,0-1.13.5Q39.82,76.07,31,84.9c-.14.14-.27.29-.4.44A26.8,26.8,0,0,0,75.41,66.79Z"/><path class="cls-1" d="M85.53,79.55a9.94,9.94,0,1,0,9.89,9.91A10,10,0,0,0,85.53,79.55Zm6.5,6.8q-4.16,4.19-8.32,8.35a1.34,1.34,0,0,1-2,.13c-1.46-1.42-2.87-2.89-4.29-4.33l1.95-2,3.1,3.2L90,84.13l2,2C92.06,86.24,92.07,86.31,92,86.35Z"/><path class="cls-1" d="M55.68,32.85V58.19H81.1C80.43,43.46,67.85,33,55.68,32.85Z"/><path class="cls-1" d="M90.16,38.36h8.16a3.17,3.17,0,0,0,.45,0c-3.47-3.47-6.94-7-10.46-10.46v8.7C88.32,37.84,88.85,38.36,90.16,38.36Z"/><path class="cls-1" d="M47.11,63.94c0-8.19,0-16.39,0-24.58V38.5A26.79,26.79,0,0,0,23,56.72c-3.6,10.56.18,21.2,5.61,26.52a3,3,0,0,0,.26-.24q8.91-8.9,17.8-17.83A1.9,1.9,0,0,0,47.11,63.94Z"/><path class="cls-1" d="M89.84,41.19a4.22,4.22,0,0,1-4.36-4.36c0-3.43,0-6.86,0-10.3v-1H52.14c-1.78,0-2.18.4-2.18,2.2V63.93H76.6c1.3,0,1.81.47,1.76,1.75s-.15,2.77-.34,4.15A29.79,29.79,0,0,1,56.39,94.08c-2.08.54-4.22.81-6.43,1.22V103c0,1.68.44,2.12,2.08,2.12H99c1.66,0,2.1-.44,2.1-2.1V41.2H89.84ZM87,46.93H98.21v2.75H87Zm0,8.52H98.21v2.76H87ZM98.21,64v2.73H87V64ZM68.4,61.08H54.64c-1.39,0-1.83-.44-1.83-1.86V31.71c0-1.46.43-1.87,1.92-1.87A29.81,29.81,0,0,1,83.29,53.05,47.59,47.59,0,0,1,84,59.37c.1,1.21-.47,1.71-1.7,1.71Zm17.1,41.19A12.78,12.78,0,1,1,98.25,89.44,12.74,12.74,0,0,1,85.5,102.27Z"/><path class="cls-1" d="M66.9,2.37A64.53,64.53,0,1,0,131.43,66.9,64.61,64.61,0,0,0,66.9,2.37Zm37,36.88v65.33c-.09.22-.19.43-.28.64a4.21,4.21,0,0,1-4,2.73H51.38a4.2,4.2,0,0,1-4.25-4.29c0-2.52,0-5,0-7.55v-1A29.56,29.56,0,0,1,27.6,86.54a29,29,0,0,1-8.82-19.4,28.52,28.52,0,0,1,4.91-18.23C29.28,40.63,37.2,36.3,47.13,35.52c0-2.85,0-5.6,0-8.35A6.32,6.32,0,0,1,47.26,26a4.52,4.52,0,0,1,3.24-3.21h53.44Z"/><path d="M88.65,23.87c-.4-.39-.82-.76-1.22-1.13H50.5A4.52,4.52,0,0,0,47.26,26a6.32,6.32,0,0,0-.13,1.22c0,2.75,0,5.5,0,8.35-9.93.78-17.85,5.11-23.44,13.39a28.52,28.52,0,0,0-4.91,18.23,29,29,0,0,0,8.82,19.4,29.56,29.56,0,0,0,19.53,8.59v1c0,2.52,0,5,0,7.55A4.2,4.2,0,0,0,51.38,108h48.3a4.21,4.21,0,0,0,4-2.73c.09-.21.19-.42.28-.64V39.25c-.38-.41-.75-.83-1.14-1.22Zm-.34,4c3.52,3.51,7,7,10.46,10.46a3.17,3.17,0,0,1-.45,0H90.16c-1.31,0-1.84-.52-1.85-1.81v-8.7ZM28.6,83.24c-5.43-5.32-9.21-16-5.61-26.52A26.79,26.79,0,0,1,47.13,38.5v.86c0,8.19,0,16.39,0,24.58a1.9,1.9,0,0,1-.45,1.23Q37.78,74.11,28.86,83A3,3,0,0,1,28.6,83.24Zm2,2.1c.13-.15.26-.3.4-.44q8.82-8.82,17.65-17.62a1.86,1.86,0,0,1,1.13-.5q12.51,0,25,0l.59,0A26.8,26.8,0,0,1,30.62,85.34ZM101.1,42.22V103c0,1.66-.44,2.1-2.1,2.1H52c-1.64,0-2.08-.44-2.08-2.12V95.3c2.21-.41,4.35-.68,6.43-1.22A29.79,29.79,0,0,0,78,69.83c.19-1.38.28-2.77.34-4.15s-.46-1.75-1.76-1.75H50V27.77c0-1.8.4-2.2,2.18-2.2H85.48v1c0,3.44,0,6.87,0,10.3a4.22,4.22,0,0,0,4.36,4.36H101.1Z"/><path class="cls-2" d="M88.65,23.87,102.8,38c.39.39.76.81,1.14,1.22V22.74H87.43C87.83,23.11,88.25,23.48,88.65,23.87Z"/><path d="M84,59.37a47.59,47.59,0,0,0-.74-6.32A29.81,29.81,0,0,0,54.73,29.84c-1.49,0-1.92.41-1.92,1.87V59.22c0,1.42.44,1.86,1.83,1.86H82.33C83.56,61.08,84.13,60.58,84,59.37ZM55.68,58.19V32.85C67.85,33,80.43,43.46,81.1,58.19Z"/><path d="M85.58,76.71A12.78,12.78,0,1,0,98.25,89.44,12.74,12.74,0,0,0,85.58,76.71Zm-.17,22.72a9.94,9.94,0,1,1,10-10A10,10,0,0,1,85.41,99.43Z"/><path d="M98.21,46.93H87v2.75H98.21Z"/><path d="M98.21,55.45H87v2.76H98.21Z"/><path d="M98.21,66.72V64H87v2.73Z"/><path d="M82.48,91.71l-3.1-3.2-1.95,2c1.42,1.44,2.83,2.91,4.29,4.33a1.34,1.34,0,0,0,2-.13q4.17-4.15,8.32-8.35s0-.11.06-.19l-2-2Z"/><path d="M66.9,0a66.91,66.91,0,1,0,66.91,66.9A67,67,0,0,0,66.9,0Zm0,131.43A64.53,64.53,0,1,1,131.43,66.9,64.61,64.61,0,0,1,66.9,131.43Z"/></svg>